<svg xmlns="http://www.w3.org/2000/svg" viewBox="0 0 32 32" width="32" height="32">
  <defs>
    <linearGradient id="neuralGrad" x1="0%" y1="0%" x2="100%" y2="100%">
      <stop offset="0%" style="stop-color:#4f46e5;stop-opacity:1" />
      <stop offset="50%" style="stop-color:#7c3aed;stop-opacity:1" />
      <stop offset="100%" style="stop-color:#ec4899;stop-opacity:1" />
    </linearGradient>
    <radialGradient id="quantumGlow" cx="50%" cy="50%" r="50%">
      <stop offset="0%" style="stop-color:#ffffff;stop-opacity:0.8" />
      <stop offset="70%" style="stop-color:#a855f7;stop-opacity:0.4" />
      <stop offset="100%" style="stop-color:#4f46e5;stop-opacity:0.2" />
    </radialGradient>
    <filter id="glow">
      <feGaussianBlur stdDeviation="1" result="coloredBlur"/>
      <feMerge> 
        <feMergeNode in="coloredBlur"/>
        <feMergeNode in="SourceGraphic"/>
      </feMerge>
    </filter>
  </defs>
  
  <!-- Quantum-inspired background -->
  <circle cx="16" cy="16" r="15" fill="url(#neuralGrad)" opacity="0.9"/>
  
  <!-- Neural network nodes -->
  <circle cx="8" cy="12" r="2" fill="white" opacity="0.9" filter="url(#glow)"/>
  <circle cx="24" cy="12" r="2" fill="white" opacity="0.9" filter="url(#glow)"/>
  <circle cx="16" cy="8" r="1.5" fill="#fbbf24" opacity="0.8"/>
  <circle cx="16" cy="24" r="2.5" fill="white" opacity="1" filter="url(#glow)"/>
  
  <!-- Federated learning connections -->
  <path d="M8 12 Q16 6 24 12" stroke="white" stroke-width="1" fill="none" opacity="0.6"/>
  <path d="M8 12 Q12 18 16 24" stroke="white" stroke-width="1" fill="none" opacity="0.6"/>
  <path d="M24 12 Q20 18 16 24" stroke="white" stroke-width="1" fill="none" opacity="0.6"/>
  
  <!-- Privacy shield in center -->
  <g transform="translate(16,16)">
    <!-- Shield shape -->
    <path d="M-3,-4 Q0,-6 3,-4 L3,2 Q0,4 -3,2 Z" fill="url(#quantumGlow)" stroke="white" stroke-width="0.5"/>
    <!-- Lock symbol -->
    <rect x="-1.5" y="-1" width="3" height="2" fill="#4f46e5" rx="0.3"/>
    <path d="M-1,-1 Q0,-2.5 1,-1" stroke="#4f46e5" stroke-width="0.5" fill="none"/>
  </g>
  
  <!-- Quantum orbital rings -->
  <ellipse cx="16" cy="16" rx="12" ry="4" fill="none" stroke="white" stroke-width="0.5" opacity="0.3" transform="rotate(45 16 16)"/>
  <ellipse cx="16" cy="16" rx="12" ry="4" fill="none" stroke="white" stroke-width="0.5" opacity="0.3" transform="rotate(-45 16 16)"/>
  
  <!-- Data flow particles -->
  <circle cx="6" cy="20" r="0.8" fill="#fbbf24" opacity="0.7">
    <animate attributeName="opacity" values="0.7;1;0.7" dur="2s" repeatCount="indefinite"/>
  </circle>
  <circle cx="26" cy="20" r="0.8" fill="#06d6a0" opacity="0.7">
    <animate attributeName="opacity" values="1;0.7;1" dur="2s" repeatCount="indefinite"/>
  </circle>
</svg>